<?xml version="1.0" encoding="iso-8859-1"?>
<!-- Generator: Adobe Illustrator 19.0.0, SVG Export Plug-In . SVG Version: 6.00 Build 0)  -->
<svg fill="#fedb41" version="1.1" id="Capa_1" xmlns="http://www.w3.org/2000/svg" xmlns:xlink="http://www.w3.org/1999/xlink" x="0px" y="0px"
	 viewBox="0 0 512 512" style="enable-background:new 0 0 512 512;" xml:space="preserve">
<g>
	<g>
		<path d="M367.105,22.293C334.636,7.509,297.259,0,256.022,0c-41.536,0-78.912,7.509-111.125,22.315
			c-5.333,2.453-7.68,8.789-5.227,14.144c2.453,5.355,8.789,7.68,14.144,5.227c29.397-13.504,63.787-20.352,102.208-20.352
			c38.165,0,72.555,6.848,102.251,20.373c1.429,0.64,2.944,0.96,4.416,0.96c4.053,0,7.936-2.304,9.707-6.251
			C374.828,31.061,372.46,24.725,367.105,22.293z"/>
	</g>
</g>
<g>
	<g>
		<path d="M412.972,109.845c-43.243-43.947-97.536-67.179-156.992-67.179c-59.221,0-113.472,23.232-156.864,67.157
			c-4.139,4.203-4.096,10.965,0.085,15.083c2.091,2.069,4.8,3.093,7.488,3.093c2.752,0,5.504-1.067,7.595-3.157
			C153.601,85.035,202.582,64,255.98,64c53.589,0,102.635,21.013,141.781,60.8c4.117,4.181,10.88,4.245,15.083,0.128
			C417.046,120.811,417.11,114.027,412.972,109.845z"/>
	</g>
</g>
<g>
	<g>
		<path d="M255.98,85.333c-15.232,0-30.336,1.877-44.928,5.611c-5.717,1.451-9.152,7.253-7.701,12.949
			c1.451,5.739,7.232,9.173,12.992,7.701c12.843-3.264,26.197-4.928,39.637-4.928c88.235,0,160,71.765,160,160
			c0,5.888,4.779,10.667,10.667,10.667s10.667-4.779,10.667-10.667C437.313,166.677,355.969,85.333,255.98,85.333z"/>
	</g>
</g>
<g>
	<g>
		<path d="M179.521,113.643c-2.987-5.099-9.536-6.784-14.592-3.819c-13.653,8-26.304,17.835-37.547,29.227
			c-33.216,33.579-51.925,78.827-52.693,127.445c-0.107,5.909,4.608,10.731,10.496,10.837c0.064,0,0.128,0,0.171,0
			c5.824,0,10.581-4.672,10.667-10.496c0.683-43.072,17.195-83.136,46.528-112.768c9.963-10.091,21.12-18.773,33.152-25.813
			C180.78,125.269,182.486,118.72,179.521,113.643z"/>
	</g>
</g>
<g>
	<g>
		<path d="M360.513,175.616C334.124,145.344,296.022,128,255.98,128c-37.205,0-72.107,14.592-98.261,41.067
			c-26.048,26.347-40.384,61.931-40.384,100.8c0.064,22.933-7.104,50.453-19.947,76.907l-5.995,10.667
			c-2.88,5.141-1.067,11.648,4.075,14.528c1.664,0.917,3.456,1.365,5.227,1.365c3.733,0,7.339-1.963,9.301-5.44l6.293-11.221
			c14.72-30.336,22.464-60.373,22.379-87.381c0-32.64,12.16-62.912,34.219-85.227c22.144-22.4,51.648-34.731,83.093-34.731
			c33.856,0,66.112,14.677,88.448,40.32c3.904,4.437,10.624,4.864,15.061,1.024C363.926,186.795,364.374,180.075,360.513,175.616z"
			/>
	</g>
</g>
<g>
	<g>
		<path d="M414.465,389.653l-12.011-39.381c-6.763-30.848-7.339-60.331-7.701-77.931l-0.128-5.675
			c0-15.808-2.667-31.36-7.915-46.165c-1.941-5.547-8.043-8.448-13.611-6.507c-5.547,1.984-8.448,8.064-6.485,13.632
			c4.437,12.523,6.677,25.664,6.677,39.317l0.128,5.803c0.363,18.411,0.981,49.195,8.405,82.923l12.203,40.192
			c1.408,4.587,5.653,7.552,10.219,7.552c1.024,0,2.069-0.149,3.115-0.448C412.993,401.259,416.172,395.307,414.465,389.653z"/>
	</g>
</g>
<g>
	<g>
		<path d="M383.34,438.891l-9.899-31.744c-17.579-54.912-20.864-116.736-21.461-140.48c0-52.928-43.072-96-96-96
			c-52.928,0-95.979,43.733-95.979,97.856c0.021,11.221-2.048,70.528-47.083,135.488c-3.371,4.843-2.155,11.499,2.688,14.848
			c4.8,3.307,11.477,2.133,14.848-2.688c47.467-68.459,50.944-130.389,50.88-148.011c0-41.984,33.472-76.16,74.624-76.16
			c41.173,0,74.667,33.515,74.667,74.944c0.768,30.976,4.715,91.221,22.464,146.624l9.856,31.659
			c1.429,4.587,5.653,7.509,10.197,7.509c1.067,0,2.112-0.149,3.179-0.491C381.953,450.496,385.089,444.523,383.34,438.891z"/>
	</g>
</g>
<g>
	<g>
		<path d="M309.313,266.624c0-29.419-23.915-53.333-53.333-53.333c-29.419,0-53.333,23.936-53.333,53.739
			c0.128,3.541,2.475,87.339-65.259,175.509c-3.584,4.672-2.709,11.371,1.963,14.955c4.693,3.584,11.371,2.709,14.955-1.963
			c72.384-94.208,69.781-185.451,69.653-188.885c0-17.643,14.357-32,32-32c17.643,0,32.021,14.357,32.021,32.256
			c0.277,11.947,0.363,119.723-82.923,227.925c-3.584,4.672-2.731,11.349,1.941,14.955c1.963,1.493,4.245,2.219,6.507,2.219
			c3.2,0,6.379-1.429,8.469-4.203C309.868,393.621,309.633,279.04,309.313,266.624z"/>
	</g>
</g>
<g>
	<g>
		<path d="M266.625,266.197c-0.256-5.909-5.056-9.984-11.115-10.176c-5.888,0.256-10.453,5.248-10.197,11.115
			c0,0.149,0.597,15.744-3.371,40.469c-0.939,5.803,3.029,11.285,8.832,12.224c0.576,0.085,1.152,0.128,1.707,0.128
			c5.163,0,9.685-3.733,10.539-8.96C267.371,283.904,266.646,266.901,266.625,266.197z"/>
	</g>
</g>
<g>
	<g>
		<path d="M245.676,342.08c-5.632-1.6-11.584,1.557-13.269,7.211c-13.355,45.056-35.52,87.189-65.899,125.184
			c-3.669,4.608-2.923,11.307,1.685,14.997c1.963,1.557,4.331,2.325,6.656,2.325c3.136,0,6.229-1.387,8.32-3.989
			c32.107-40.192,55.552-84.757,69.696-132.48C254.55,349.675,251.329,343.744,245.676,342.08z"/>
	</g>
</g>
<g>
	<g>
		<path d="M349.036,469.931l-12.843-40.896c-5.12-15.296-9.899-31.509-9.92-31.552c-1.28-4.331-5.12-7.381-9.621-7.637
			c-4.715-0.512-8.683,2.347-10.432,6.485c-0.235,0.555-24,56.405-51.243,99.285c-3.157,4.971-1.685,11.584,3.285,14.72
			c1.771,1.131,3.755,1.664,5.717,1.664c3.52,0,6.976-1.749,8.981-4.907c16.512-25.984,31.467-55.808,41.237-76.587
			c0.576,1.707,1.131,3.435,1.707,5.12l12.779,40.683c1.749,5.611,7.723,8.789,13.376,6.997
			C347.67,481.536,350.806,475.541,349.036,469.931z"/>
	</g>
</g>
<g>
</g>
<g>
</g>
<g>
</g>
<g>
</g>
<g>
</g>
<g>
</g>
<g>
</g>
<g>
</g>
<g>
</g>
<g>
</g>
<g>
</g>
<g>
</g>
<g>
</g>
<g>
</g>
<g>
</g>
</svg>
