<svg fill="#fedb41" id="Layer_1" enable-background="new 0 0 512.001 512.001" height="512" viewBox="0 0 512.001 512.001" width="512" xmlns="http://www.w3.org/2000/svg"><g id="XMLID_1396_"><g id="XMLID_106_"><path id="XMLID_651_" d="m480 448h-84.44v-236.147c21.276 9.938 44.157 15.015 67.299 15.014 13.916-.001 27.928-1.83 41.729-5.528 3.907-1.047 6.799-4.344 7.327-8.354.528-4.011-1.412-7.943-4.915-9.966l-107.44-62.031v-24.763c0-42.798-16.667-83.034-46.929-113.297-2.86-2.859-7.162-3.714-10.898-2.168-3.737 1.548-6.173 5.194-6.173 9.239v124.061l-21.446 12.381c-37.063 21.398-63.576 55.95-74.653 97.29-1.047 3.906.363 8.06 3.571 10.521 1.786 1.37 3.932 2.066 6.089 2.066 1.719 0 3.445-.442 4.999-1.34l81.439-47.019v240.041h-34.559c-5.523 0-10 4.478-10 10s4.477 10 10 10h179c6.617 0 12 5.383 12 12s-5.383 12-12 12h-448c-6.617 0-12-5.383-12-12s5.383-12 12-12h179c5.523 0 10-4.478 10-10s-4.477-10-10-10h-54.56v-141.634c21.276 9.938 44.157 15.015 67.298 15.014 13.916-.001 27.928-1.83 41.729-5.528 3.907-1.047 6.799-4.344 7.327-8.354.528-4.011-1.412-7.943-4.915-9.966l-107.439-62.03v-24.763c0-42.797-16.667-83.033-46.929-113.297-2.859-2.86-7.162-3.715-10.898-2.168-3.737 1.548-6.173 5.194-6.173 9.239v124.061l-21.446 12.381c-37.064 21.399-63.576 55.951-74.653 97.29-1.047 3.906.363 8.06 3.571 10.521 1.786 1.37 3.932 2.066 6.089 2.066 1.719 0 3.445-.442 4.999-1.34l81.44-47.019v145.527h-64.44c-17.645 0-32 14.355-32 32s14.355 32 32 32h448c17.645 0 32-14.355 32-32s-14.355-32-32-32zm-100.44-292c0 7.72-6.28 14-14 14s-14-6.28-14-14 6.28-14 14-14 14 6.281 14 14zm13.447 32.012-7.633-4.407c6.613-4.76 11.45-11.829 13.324-20.021l74.315 42.906c-27.72 2.023-55.405-4.275-80.006-18.478zm-13.447-71.786v8.803c-4.273-1.939-9.01-3.029-14-3.029-3.479 0-6.837.527-10 1.503v-85.804c15.611 23 24 50.118 24 78.527zm-55.445 47.537 7.614-4.396c.837 8.472 4.798 16.035 10.71 21.53l-74.33 42.914c12.113-25.019 31.403-45.844 56.006-60.048zm31.445 284.237v-251.585l6.001-3.465 13.999 8.083v246.967zm-215.12-197.487c0 7.72-6.28 14-14 14s-14-6.28-14-14 6.28-14 14-14 14 6.28 14 14zm13.446 32.012-7.633-4.407c6.613-4.76 11.45-11.829 13.324-20.021l74.315 42.906c-27.72 2.021-55.405-4.275-80.006-18.478zm-13.446-71.786v8.803c-4.273-1.939-9.01-3.029-14-3.029-3.479 0-6.837.528-10 1.503v-85.804c15.611 23 24 50.117 24 78.527zm-55.446 47.537 7.614-4.396c.837 8.472 4.798 16.036 10.71 21.53l-74.33 42.914c12.114-25.019 31.403-45.843 56.006-60.048zm31.446 32.652 6-3.464 14 8.083v152.453h-20z"/><path id="XMLID_694_" d="m256 448c-2.63 0-5.21 1.069-7.07 2.93-1.86 1.86-2.93 4.44-2.93 7.07s1.07 5.21 2.93 7.069c1.86 1.86 4.44 2.931 7.07 2.931s5.21-1.07 7.07-2.931c1.86-1.859 2.93-4.439 2.93-7.069s-1.07-5.21-2.93-7.07-4.44-2.93-7.07-2.93z"/></g></g></svg>